<svg width="518" height="482" viewBox="0 0 518 482" fill="none" xmlns="http://www.w3.org/2000/svg">
<path d="M318.691 137.193C278.596 136.097 214.542 167.584 180.806 209.638C129.095 274.092 79.3811 242.5 31.2738 286.151C-5.11232 319.176 -16.5228 390.489 37.5954 427.476C91.7135 464.462 185.21 424.773 240.471 447.183C295.733 469.593 345.22 487.984 401.43 479.518C465.968 469.82 522.931 411.529 512.406 307.36C498.946 174.095 404.269 139.527 318.691 137.193Z" fill="#E1ECFF"/>
<path d="M472.716 330.755C472.716 330.755 506.374 345.611 508.349 374.479C510.103 400.124 496.607 426.448 472.716 438.749C445.423 452.772 433.57 429.44 442.209 414.69C450.849 399.94 498.904 377.287 466.237 348.282C466.237 335.886 472.716 330.755 472.716 330.755Z" fill="#F774B9"/>
<path opacity="0.58" d="M130.433 327.299C118.501 326.045 96.5179 326.567 84.6544 329.649C73.8444 332.457 63.5824 344.926 79.9132 350.721C96.244 356.516 82.6578 363.622 60.9484 364.66C39.2389 365.698 29.5037 380.011 44.7809 387.95C60.0581 395.889 91.2025 396.378 117.01 396.378C142.818 396.378 176.191 392.37 190.283 383.92C204.375 375.47 193.544 367.452 188.65 365.229C183.756 363.006 179.01 362.484 180.342 359.002C181.675 355.52 187.717 345.374 178.809 337.54C163.716 324.296 143.219 328.648 130.433 327.299Z" fill="#99ADF9"/>
<path d="M246.898 311.964C246.898 311.964 245.876 334.3 244.032 336.961C242.189 339.621 225.594 344.236 224.678 349.462C223.761 354.687 223.861 363.806 232.258 365.445C240.656 367.083 258.599 366.677 263.197 366.498C267.796 366.319 277.332 353.381 281.53 323.875C256.533 312.459 246.898 311.964 246.898 311.964Z" fill="#F774B9"/>
<path d="M290.491 32.4492C290.491 32.4492 277.937 8.55357 269.166 3.02217C260.395 -2.50923 254.584 0.187982 252.43 5.99332C250.275 11.7987 249.727 35.1464 249.727 35.1464C249.727 35.1464 225.431 57.6882 216.254 82.6585C207.078 107.629 205.049 158.249 262.955 164.987C320.861 171.725 380.526 152.581 406.045 135.302C397.669 93.0523 385.789 37.9806 383.087 22.7508C380.384 7.52104 372.024 -0.0332761 362.842 0.0194039C353.66 0.0720839 342.302 21.3811 338.814 34.3404C314.655 31.501 290.491 32.4492 290.491 32.4492Z" fill="#FF97C9"/>
<path opacity="0.3" d="M345.268 35.6416C345.268 35.6416 353.259 9.85997 360.213 9.99694C366.44 10.1181 369.321 29.4885 369.843 39.0289C369.861 39.3679 369.801 39.7065 369.667 40.0185C369.533 40.3304 369.329 40.6072 369.07 40.8274C368.812 41.0476 368.506 41.2052 368.177 41.288C367.848 41.3707 367.504 41.3765 367.172 41.3047C358.68 39.4925 345.268 35.6416 345.268 35.6416Z" fill="white"/>
<path opacity="0.3" d="M249.585 35.236C249.585 35.236 248.932 8.04789 254.716 6.01445C260.59 3.94412 269.993 21.1389 273.797 29.9206C273.93 30.2328 273.99 30.5716 273.972 30.9107C273.953 31.2498 273.857 31.5801 273.691 31.876C273.524 32.172 273.292 32.4256 273.011 32.6173C272.731 32.8089 272.41 32.9335 272.074 32.9813C263.487 34.214 249.585 35.236 249.585 35.236Z" fill="white"/>
<path d="M406.045 135.302C410.164 151.906 434.66 196.042 449.643 220.343C464.625 244.644 477.858 275.13 477.036 313.655C476.214 352.18 461.685 362.7 441.551 368.548C421.417 374.395 409.005 372.762 397.3 374.311C385.594 375.86 373.367 380.88 365.444 374.311C357.521 367.742 353.386 363.87 344.567 368.458C335.748 373.046 313.344 371.787 307.496 370.26C301.649 368.732 298.767 357.032 308.55 351C292.53 356.131 251.655 351.432 241.867 311.859C234.039 280.135 257.671 214.548 262.939 199.555C268.328 184.173 270.768 175.66 267.796 161.758C287.388 156.226 406.045 135.302 406.045 135.302Z" fill="#FF97C9"/>
<path d="M422.771 173.057C422.771 173.057 401.646 196.068 406.045 219.532C409.1 235.894 429.261 244.908 431.421 258.947C433.58 272.986 448.974 296.35 474.887 284.275C471.637 244.096 422.771 173.057 422.771 173.057Z" fill="#F774B9"/>
<g style="mix-blend-mode:multiply" opacity="0.19">
<path d="M458.14 233.334C458.14 233.334 475.44 338.831 410.096 373.405C455.579 400.983 517.531 317.564 517.531 317.564L458.14 233.334Z" fill="#FF97C9"/>
</g>
<path d="M362.215 324.908C362.215 324.908 363.268 347.492 382.908 351.184C380.389 356.31 362.483 352.891 361.672 370.797C358.343 368.764 354.202 363.87 344.572 368.458C357.621 346.501 362.215 324.908 362.215 324.908Z" fill="#F774B9"/>
<path opacity="0.3" d="M261.701 186.022C261.701 186.022 268.423 180.048 288.041 182.861C307.659 185.674 332.603 242.121 329.411 275.847C326.219 309.572 330.401 348.513 299.199 355.841C268.086 367.921 201.119 321.973 201.119 321.973L261.701 186.022Z" fill="white"/>
<path d="M328.71 239.218C328.742 258.768 326.967 278.244 325.065 297.693C324.122 307.365 323.263 317.069 321.535 326.667C320.26 333.716 318.717 346.354 309.635 347.523C306.653 347.908 306.611 352.654 309.635 352.264C318.738 351.089 322.805 342.892 324.701 334.801C327.077 324.665 328.173 314.256 329.2 303.904C331.307 282.416 333.483 260.88 333.452 239.255C333.452 236.205 328.71 236.2 328.71 239.255V239.218Z" fill="#F774B9"/>
<path d="M369.021 277.195C367.541 292.615 364.238 307.787 360.013 322.674C357.906 330.002 355.625 337.266 353.196 344.483C351.984 348.09 350.745 351.69 349.477 355.283C348.249 358.77 347.064 362.331 344.525 365.113C342.47 367.362 345.816 370.723 347.875 368.463C352.869 362.995 354.645 354.94 356.973 348.097C359.607 340.417 362.073 332.688 364.311 324.886C368.789 309.277 372.213 293.373 373.762 277.195C374.057 274.161 369.311 274.182 369.021 277.195Z" fill="#F774B9"/>
<path d="M393.122 273.824C385.747 277.364 378.772 283.512 373.346 289.58C367.92 295.649 364.754 303.119 362.973 310.974C361.193 318.828 359.518 327.995 362.589 335.733C365.181 342.26 370.433 347.502 376.596 350.752C385.062 355.22 394.834 356.052 404.248 355.91C407.293 355.868 407.304 351.126 404.248 351.169C394.808 351.311 384.815 350.536 376.654 345.3C368.931 340.343 365.107 332.657 365.802 323.527C366.498 314.398 368.605 304.563 373.704 296.808C376.338 292.789 379.936 289.549 383.529 286.404C387.243 283.148 391.031 280.082 395.503 277.922C398.253 276.6 395.851 272.512 393.112 273.829L393.122 273.824Z" fill="#F774B9"/>
<path d="M385.289 350.199C379.173 352.57 372.804 354.635 366.851 357.395C364.609 358.406 362.737 360.089 361.494 362.211C360.251 364.332 359.699 366.788 359.913 369.238C360.181 372.251 364.923 372.277 364.654 369.238C364.18 363.928 367.857 362.015 372.166 360.345L386.553 354.772C389.371 353.681 388.133 349.093 385.294 350.199H385.289Z" fill="#F774B9"/>
<path d="M309.64 359.26C308.268 362.181 307.687 365.411 307.954 368.627C308.234 371.64 312.975 371.672 312.696 368.627C312.43 366.249 312.793 363.844 313.749 361.652C314.276 360.477 314.081 359.118 312.901 358.412C311.89 357.806 310.183 358.096 309.656 359.26H309.64Z" fill="#F774B9"/>
<path d="M325.37 359.545C323.743 362.668 323.616 366.045 323.722 369.496C323.811 372.541 328.552 372.551 328.463 369.496C328.384 366.946 328.252 364.27 329.464 361.942C330.87 359.234 326.782 356.837 325.37 359.545Z" fill="#F774B9"/>
<path d="M268.629 166.383C268.629 166.383 342.054 172.557 406.034 135.302C409.5 145.311 414.226 155.952 414.226 155.952C414.226 155.952 350.578 194.582 267.696 184.273C264.72 179.363 268.629 166.383 268.629 166.383Z" fill="#738DE0"/>
<path d="M237.042 86.0774C238.907 84.4444 254.721 84.0545 256.386 85.0923C258.051 86.1301 256.207 97.3299 246.714 97.3299C237.221 97.3299 235.598 87.3418 237.042 86.0774Z" fill="#1C3177"/>
<path d="M305.068 86.0774C306.938 84.4444 322.752 84.0545 324.417 85.0923C326.082 86.1301 324.238 97.3299 314.745 97.3299C305.252 97.3299 303.629 87.3418 305.068 86.0774Z" fill="#1C3177"/>
<path d="M271.147 131.798C271.147 131.798 276.094 119.292 279.049 119.561C282.004 119.83 288.784 131.798 288.784 131.798" stroke="#1C3177" stroke-width="9" stroke-miterlimit="10" stroke-linecap="round"/>
<path d="M203.295 110.679C209.593 110.437 215.9 110.542 222.186 110.995C225.231 111.216 225.22 106.475 222.186 106.254C215.9 105.801 209.593 105.695 203.295 105.938C200.255 106.054 200.24 110.795 203.295 110.679Z" fill="#F774B9"/>
<path d="M205.407 134.085C210.65 131.736 216.013 129.666 221.475 127.884C224.362 126.941 223.129 122.364 220.216 123.317C214.369 125.236 208.628 127.462 203.016 129.986C200.24 131.235 202.647 135.323 205.407 134.085Z" fill="#F774B9"/>
<path d="M334.821 111.606C340.027 108.462 345.476 105.738 351.115 103.462C353.912 102.34 352.696 97.7566 349.856 98.8892C343.827 101.295 337.999 104.178 332.43 107.513C329.796 109.093 332.198 113.181 334.821 111.606Z" fill="#F774B9"/>
<path d="M336.649 124.86C342.044 125.182 347.417 125.724 352.764 126.52C355.746 126.962 357.036 122.395 354.023 121.947C348.228 121.089 342.465 120.467 336.639 120.119C333.588 119.935 333.599 124.676 336.639 124.86H336.649Z" fill="#F774B9"/>
<path d="M276.115 33.5924C280.475 33.1186 284.866 32.9759 289.248 33.1657C292.298 33.2974 292.293 28.5562 289.248 28.4245C284.866 28.2347 280.475 28.3774 276.115 28.8512C273.117 29.1778 273.08 33.9243 276.115 33.5924Z" fill="#F774B9"/>
<path d="M340.837 35.4784C343.993 35.533 347.111 36.178 350.03 37.3801C352.859 38.518 354.086 33.9348 351.289 32.8075C347.964 31.4748 344.419 30.7727 340.837 30.7372C337.787 30.6898 337.787 35.431 340.837 35.4784Z" fill="#F774B9"/>
<path d="M271.147 210.081C279.247 210.081 285.813 203.935 285.813 196.353C285.813 188.771 279.247 182.624 271.147 182.624C263.047 182.624 256.481 188.771 256.481 196.353C256.481 203.935 263.047 210.081 271.147 210.081Z" fill="#FFD3B3"/>
<path d="M276.182 196.012C276.457 193.974 273.714 191.921 270.055 191.427C266.396 190.933 263.207 192.185 262.932 194.223C262.656 196.262 265.399 198.315 269.058 198.809C272.717 199.303 275.906 198.051 276.182 196.012Z" fill="#1C3177"/>
<path d="M269.566 195.594C267.653 200.61 267.065 206.035 267.86 211.345" stroke="#1C3177" stroke-width="7" stroke-miterlimit="10"/>
<path d="M73.6338 377.277L107.454 415.506L125.824 407.552L112.538 400.925L116.721 382.234L73.6338 377.277Z" fill="#738DE0"/>
<path d="M142.797 382.65L157.827 368.806L165.934 384.03L142.797 382.65Z" fill="#738DE0"/>
<path d="M99.7262 298.415L195.793 308.903C195.793 308.903 206.377 333.826 194.956 351.627L121.731 356.189L127.273 340.564L115.014 336.413L124.654 314.972L99.7262 298.415Z" fill="#738DE0"/>
</svg>
